# ProBuilder 5.0.7
# https://unity3d.com/unity/features/worldbuilding/probuilder
# 26/08/2024 02:18:58

mtllib ./Prism.mtl
o Prism

g Prism
v 0.5189214 -1.184153 0.5039139
v -0.5189214 -1.184153 0.5039139
v 0 1.184153 0.5039139
v -0.5189214 -1.184153 -0.5039139
v 0 1.184153 -0.5039139
v 0.5189214 -1.184153 -0.5039139

vt 0.5189214 -1.184153
vt -0.5189214 -1.184153
vt 0 1.184153
vt 0.5039139 -1.267778
vt -0.5039139 -1.267778
vt 0.5039139 1.156712
vt -0.5039139 1.156712
vt 0.5189214 0.5039139
vt -0.5189214 0.5039139
vt 0.5189214 -0.5039139
vt -0.5189214 -0.5039139

vn 0 0 1
vn -0.9768264 0.2140332 0
vn 0 0 -1
vn 0.9768264 0.2140332 0
vn 0 -1 0

usemtl UnlitWhite
f 3/3/1 2/2/1 1/1/1
f 5/3/3 6/2/3 4/1/3
f 3/6/2 5/7/2 4/5/2
f 4/5/2 2/4/2 3/6/2
f 5/6/4 3/7/4 1/5/4
f 1/5/4 6/4/4 5/6/4
f 2/9/5 4/11/5 6/10/5
f 6/10/5 1/8/5 2/9/5

